<svg version="1" xmlns="http://www.w3.org/2000/svg" width="933.333" height="933.333" viewBox="0 0 700.000000 700.000000"><path d="M0 350v350h700V0H0v350zm313-131h34v65h-68v97.7c0 93.4.6 116 3.1 128.3 1.4 6.9 6.4 12.1 13.2 13.9 10.2 2.5 32 .7 45.1-3.9 3.3-1.1 6.1-2 6.3-2 .1 0 .3 14.8.3 32.9v32.9l-11.2 3.1c-18.4 5-29.9 6.4-48.3 5.8-18.6-.6-27.6-2.5-40-8.6-16.2-8-28.2-21.3-33.5-36.9-6-18.1-7-40.5-7-161.4V284l-23.7-.2-23.8-.3-.3-32.3-.2-32.2h48v-28.3l.1-28.2 35.7-32.7 35.7-32.7.3 61 .2 60.9h34zm187.6 288c20.2 6.9 33 28 29.5 48.7-5 29.5-36.2 46.2-62.7 33.6-3.1-1.5-8.3-5.1-11.6-8.1-14.3-13.3-18-35.2-8.8-53.2 4.6-9 14.8-17.5 25.5-21.2 7.2-2.5 20.5-2.4 28.1.2z"/></svg>