<svg width="64" height="64" viewBox="0 0 64 64" fill="none" xmlns="http://www.w3.org/2000/svg">
<path d="M53 19.0153C51.4541 19.718 49.7878 20.1797 48.0612 20.4006C49.8279 19.3365 51.1931 17.6501 51.8356 15.6224C50.1692 16.6262 48.3222 17.3289 46.3748 17.7304C44.7887 16.0038 42.5602 15 40.0306 15C35.3126 15 31.4579 18.8547 31.4579 23.6128C31.4579 24.2954 31.5382 24.9579 31.6788 25.5803C24.5316 25.2189 18.1673 21.7859 13.9312 16.586C13.1883 17.8509 12.7667 19.3365 12.7667 20.9025C12.7667 23.8939 14.2725 26.544 16.6013 28.0497C15.1759 28.0497 13.8509 27.6482 12.6864 27.0459C12.6864 27.0459 12.6864 27.0459 12.6864 27.1061C12.6864 31.282 15.6577 34.7753 19.5927 35.5583C18.87 35.7591 18.1071 35.8595 17.3241 35.8595C16.782 35.8595 16.24 35.7992 15.718 35.6989C16.8021 39.0918 19.9541 41.6214 23.7486 41.6816C20.8174 44.0105 17.1033 45.3757 13.0478 45.3757C12.3652 45.3757 11.6826 45.3356 11 45.2553C14.8145 47.7046 19.3518 49.13 24.2103 49.13C40.0306 49.13 48.7237 36 48.7237 24.6166C48.7237 24.2352 48.7237 23.8738 48.7036 23.4923C50.3901 22.2878 51.8356 20.7619 53 19.0153Z" fill="black"/>
</svg>
