<svg width="180" height="180" viewBox="0 0 182 182" fill="none" xmlns="http://www.w3.org/2000/svg">
<circle cx="90" cy="90" r="90" fill="#86FB73"/>
<mask id="mask0" mask-type="alpha" maskUnits="userSpaceOnUse" x="12" y="67" width="159" height="43">
<path d="M13.494 84.541V81.9902H15.3958V79.7412L18.2636 77.1148V81.9902H20.9654V84.541H18.2636V91.6352C18.2636 92.7723 18.324 93.4766 18.4448 93.7483C18.5756 94.01 18.8925 94.1408 19.3957 94.1408C19.929 94.1408 20.4523 94.0401 20.9654 93.8389V96.4501C20.2309 96.7118 19.4963 96.8426 18.7617 96.8426C17.8863 96.8426 17.1769 96.6514 16.6335 96.269C16.0901 95.8766 15.748 95.3885 15.6071 94.8049C15.4662 94.2213 15.3958 93.215 15.3958 91.7861V84.541H13.494Z" fill="#CC295F"/>
<path d="M38.4593 90.0201H26.1728C26.354 91.3685 26.8873 92.4603 27.7728 93.2955C28.6583 94.1307 29.7904 94.5483 31.1689 94.5483C33.1714 94.5483 34.7563 93.7433 35.9235 92.1333L38.4593 93.2502C37.6342 94.5282 36.5625 95.4791 35.2443 96.103C33.9261 96.7168 32.5475 97.0237 31.1086 97.0237C28.8747 97.0237 26.9628 96.3294 25.3729 94.9407C23.793 93.542 23.0031 91.6603 23.0031 89.2956C23.0031 87.0517 23.7729 85.2052 25.3125 83.7562C26.8621 82.3071 28.6382 81.5826 30.6406 81.5826C32.6029 81.5826 34.3789 82.292 35.9688 83.7109C37.5688 85.1196 38.3989 87.2227 38.4593 90.0201ZM35.5009 87.9372C35.2996 86.9108 34.7663 85.985 33.9009 85.1599C33.0356 84.3247 31.9739 83.9071 30.7161 83.9071C29.569 83.9071 28.5879 84.2844 27.7728 85.0391C26.9577 85.7838 26.4596 86.7498 26.2785 87.9372H35.5009Z" fill="#CC295F"/>
<path d="M54.5494 81.9902V87.5145H51.9835C51.8526 86.458 51.4199 85.6479 50.6854 85.0844C49.9609 84.5209 49.1156 84.2392 48.1496 84.2392C46.8616 84.2392 45.8151 84.697 45.0101 85.6127C44.2051 86.5183 43.8025 87.7108 43.8025 89.19C43.8025 90.5685 44.1849 91.7861 44.9497 92.8427C45.7144 93.8892 46.8213 94.4125 48.2703 94.4125C50.2829 94.4125 51.7419 93.4565 52.6476 91.5446L55.0173 92.6616C53.7092 95.5697 51.4199 97.0237 48.1496 97.0237C45.8352 97.0237 44.0139 96.2338 42.6856 94.654C41.3573 93.0741 40.6932 91.2528 40.6932 89.19C40.6932 86.9863 41.4177 85.1699 42.8667 83.7411C44.3157 82.3021 45.9861 81.5826 47.8779 81.5826C49.498 81.5826 50.8665 82.0606 51.9835 83.0166V81.9902H54.5494Z" fill="#CC295F"/>
<path d="M59.0021 94.0502V78.1563H56.3607V75.6054H61.87V83.6656C63.5907 82.2769 65.2258 81.5826 66.7755 81.5826C67.7415 81.5826 68.5364 81.7839 69.1603 82.1864C69.7842 82.5889 70.2068 83.1222 70.4282 83.7863C70.6597 84.4404 70.7754 85.4014 70.7754 86.6693V94.0502H73.2659V96.6011H67.9075V87.6655C67.9075 86.5586 67.8723 85.819 67.8019 85.4467C67.7314 85.0744 67.5352 84.7674 67.2132 84.5259C66.9013 84.2844 66.529 84.1637 66.0963 84.1637C64.9894 84.1637 63.5806 84.7926 61.87 86.0504V94.0502H64.4057V96.6011H56.3607V94.0502H59.0021Z" fill="#CC295F"/>
<path d="M79.711 81.9902V83.7562C81.5524 82.4279 83.2329 81.7638 84.7523 81.7638C85.6982 81.7638 86.4781 81.9902 87.0919 82.443C87.7158 82.8857 88.1233 83.4341 88.3145 84.0882C88.5057 84.7322 88.6013 85.6781 88.6013 86.9259V94.0502H91.0616V96.6011H85.7335V87.0466C85.7335 85.9397 85.5674 85.2203 85.2354 84.8882C84.9033 84.5461 84.4958 84.375 84.0127 84.375C82.7449 84.375 81.3109 84.9939 79.711 86.2316V94.0502H82.2317V96.6011H74.2772V94.0502H76.8431V84.541H74.2772V81.9902H79.711Z" fill="#CC295F"/>
<path d="M94.0351 77.0243C94.0351 76.5614 94.1961 76.1589 94.5181 75.8168C94.8502 75.4746 95.2678 75.3036 95.7709 75.3036C96.2439 75.3036 96.6514 75.4696 96.9935 75.8017C97.3356 76.1337 97.5067 76.5413 97.5067 77.0243C97.5067 77.5073 97.3356 77.9198 96.9935 78.262C96.6514 78.594 96.2439 78.7601 95.7709 78.7601C95.2879 78.7601 94.8753 78.589 94.5332 78.2469C94.2011 77.9047 94.0351 77.4972 94.0351 77.0243ZM94.4426 94.0502V84.541H92.1635V81.9902H97.3105V94.0502H99.5595V96.6011H92.1635V94.0502H94.4426Z" fill="#CC295F"/>
<path d="M115.136 81.9902V87.5145H112.57C112.44 86.458 112.007 85.6479 111.272 85.0844C110.548 84.5209 109.703 84.2392 108.737 84.2392C107.449 84.2392 106.402 84.697 105.597 85.6127C104.792 86.5183 104.39 87.7108 104.39 89.19C104.39 90.5685 104.772 91.7861 105.537 92.8427C106.301 93.8892 107.408 94.4125 108.857 94.4125C110.87 94.4125 112.329 93.4565 113.235 91.5446L115.604 92.6616C114.296 95.5697 112.007 97.0237 108.737 97.0237C106.422 97.0237 104.601 96.2338 103.273 94.654C101.944 93.0741 101.28 91.2528 101.28 89.19C101.28 86.9863 102.005 85.1699 103.454 83.7411C104.903 82.3021 106.573 81.5826 108.465 81.5826C110.085 81.5826 111.453 82.0606 112.57 83.0166V81.9902H115.136Z" fill="#CC295F"/>
<path d="M132.328 94.0502V96.6011H127.317V94.82C125.929 96.1684 124.379 96.8426 122.668 96.8426C121.34 96.8426 120.183 96.4099 119.197 95.5445C118.221 94.6791 117.733 93.5722 117.733 92.2238C117.733 90.8654 118.251 89.7384 119.287 88.8428C120.334 87.9472 121.592 87.4994 123.061 87.4994C124.429 87.4994 125.752 87.912 127.03 88.7371V87.2881C127.03 86.5435 126.96 85.9699 126.819 85.5674C126.678 85.1649 126.346 84.8027 125.823 84.4807C125.31 84.1587 124.636 83.9977 123.8 83.9977C122.361 83.9977 121.32 84.5712 120.676 85.7184L117.929 84.9939C119.146 82.7197 121.249 81.5826 124.238 81.5826C125.335 81.5826 126.281 81.7336 127.076 82.0354C127.881 82.3273 128.479 82.7096 128.872 83.1826C129.264 83.6455 129.526 84.1486 129.657 84.692C129.798 85.2354 129.868 86.1007 129.868 87.2881V94.0502H132.328ZM127.03 91.1673C125.793 90.2013 124.54 89.7182 123.272 89.7182C122.477 89.7182 121.813 89.9497 121.28 90.4126C120.746 90.8755 120.48 91.4742 120.48 92.2087C120.48 92.893 120.711 93.4666 121.174 93.9295C121.647 94.3923 122.286 94.6238 123.091 94.6238C124.48 94.6238 125.793 94.0401 127.03 92.8729V91.1673Z" fill="#CC295F"/>
<path d="M135.951 94.0502V78.1563H133.355V75.6054H138.819V94.0502H141.053V96.6011H133.355V94.0502H135.951Z" fill="#CC295F"/>
<path d="M144.977 94.0502V78.1563H142.381V75.6054H147.845V94.0502H150.079V96.6011H142.381V94.0502H144.977Z" fill="#CC295F"/>
<path d="M157.943 96.3445L153.143 84.541H150.713V81.9902H157.943V84.541H156.192L159.346 92.6314L162.441 84.541H160.509V81.9902H167.588V84.541H165.414L158.184 103.152H153.339V100.646H156.192L157.943 96.3445Z" fill="#CC295F"/>
<path d="M170.018 94.8301C170.018 95.8082 169.225 96.6011 168.247 96.6011C167.269 96.6011 166.476 95.8082 166.476 94.8301C166.476 93.8519 167.269 93.059 168.247 93.059C169.225 93.059 170.018 93.8519 170.018 94.8301Z" fill="#CC295F"/>
<path d="M113.241 106.583H112.24V97.8891H113.241V106.583Z" fill="#CC295F"/>
<path d="M117.011 106.696C116.249 106.696 115.664 106.47 115.257 106.017C114.849 105.561 114.641 104.893 114.634 104.013V103.272C114.634 102.359 114.832 101.644 115.228 101.127C115.628 100.606 116.185 100.346 116.898 100.346C117.615 100.346 118.151 100.574 118.505 101.031C118.86 101.487 119.041 102.198 119.049 103.164V103.821H115.63V103.963C115.63 104.619 115.753 105.096 115.998 105.395C116.247 105.693 116.604 105.842 117.068 105.842C117.362 105.842 117.621 105.787 117.843 105.678C118.07 105.564 118.281 105.387 118.477 105.145L118.998 105.779C118.564 106.391 117.902 106.696 117.011 106.696ZM116.898 101.206C116.483 101.206 116.175 101.349 115.975 101.636C115.775 101.919 115.662 102.361 115.636 102.961H118.047V102.825C118.021 102.244 117.915 101.829 117.73 101.58C117.549 101.331 117.272 101.206 116.898 101.206Z" fill="#CC295F"/>
<path d="M121.336 106.583H120.334V100.459H121.336V106.583ZM121.415 98.8343C121.415 99.0042 121.368 99.1457 121.273 99.2589C121.179 99.3721 121.036 99.4287 120.843 99.4287C120.654 99.4287 120.513 99.3721 120.419 99.2589C120.324 99.1457 120.277 99.0042 120.277 98.8343C120.277 98.6645 120.324 98.5211 120.419 98.4042C120.513 98.2872 120.654 98.2287 120.843 98.2287C121.032 98.2287 121.173 98.2891 121.268 98.4098C121.366 98.5268 121.415 98.6683 121.415 98.8343Z" fill="#CC295F"/>
<path d="M125.043 105.842C125.375 105.842 125.641 105.74 125.841 105.536C126.041 105.329 126.151 105.034 126.169 104.653H127.115C127.092 105.242 126.883 105.73 126.486 106.119C126.094 106.504 125.613 106.696 125.043 106.696C124.285 106.696 123.705 106.459 123.305 105.983C122.909 105.504 122.711 104.793 122.711 103.849V103.176C122.711 102.251 122.909 101.549 123.305 101.07C123.702 100.587 124.279 100.346 125.037 100.346C125.664 100.346 126.16 100.544 126.526 100.94C126.896 101.336 127.092 101.878 127.115 102.564H126.169C126.147 102.112 126.037 101.772 125.841 101.546C125.649 101.319 125.381 101.206 125.037 101.206C124.592 101.206 124.262 101.353 124.047 101.647C123.832 101.938 123.72 102.417 123.713 103.085V103.866C123.713 104.587 123.819 105.096 124.03 105.395C124.245 105.693 124.583 105.842 125.043 105.842Z" fill="#CC295F"/>
<path d="M130.46 106.696C129.698 106.696 129.113 106.47 128.705 106.017C128.298 105.561 128.09 104.893 128.083 104.013V103.272C128.083 102.359 128.281 101.644 128.677 101.127C129.077 100.606 129.633 100.346 130.347 100.346C131.064 100.346 131.599 100.574 131.954 101.031C132.309 101.487 132.49 102.198 132.498 103.164V103.821H129.079V103.963C129.079 104.619 129.201 105.096 129.447 105.395C129.696 105.693 130.052 105.842 130.516 105.842C130.811 105.842 131.069 105.787 131.292 105.678C131.518 105.564 131.73 105.387 131.926 105.145L132.447 105.779C132.013 106.391 131.35 106.696 130.46 106.696ZM130.347 101.206C129.932 101.206 129.624 101.349 129.424 101.636C129.224 101.919 129.111 102.361 129.084 102.961H131.496V102.825C131.469 102.244 131.364 101.829 131.179 101.58C130.998 101.331 130.72 101.206 130.347 101.206Z" fill="#CC295F"/>
<path d="M136.68 105.015C136.68 104.8 136.599 104.615 136.437 104.461C136.275 104.306 135.962 104.125 135.497 103.917C134.958 103.695 134.577 103.504 134.354 103.346C134.135 103.187 133.971 103.008 133.862 102.808C133.752 102.604 133.698 102.363 133.698 102.083C133.698 101.585 133.879 101.172 134.241 100.844C134.607 100.512 135.073 100.346 135.639 100.346C136.235 100.346 136.714 100.519 137.077 100.866C137.439 101.214 137.62 101.659 137.62 102.202H136.624C136.624 101.927 136.531 101.693 136.347 101.5C136.162 101.304 135.926 101.206 135.639 101.206C135.345 101.206 135.113 101.283 134.943 101.438C134.777 101.589 134.694 101.793 134.694 102.049C134.694 102.253 134.754 102.417 134.875 102.542C134.999 102.666 135.296 102.83 135.764 103.034C136.507 103.325 137.013 103.61 137.28 103.889C137.548 104.164 137.682 104.515 137.682 104.942C137.682 105.474 137.499 105.9 137.133 106.221C136.767 106.538 136.277 106.696 135.662 106.696C135.024 106.696 134.507 106.513 134.111 106.147C133.715 105.781 133.516 105.317 133.516 104.755H134.524C134.535 105.095 134.639 105.361 134.835 105.553C135.031 105.745 135.307 105.842 135.662 105.842C135.994 105.842 136.247 105.768 136.42 105.621C136.594 105.47 136.68 105.268 136.68 105.015Z" fill="#CC295F"/>
<path d="M140.303 98.9759V100.459H141.226V101.268H140.303V105.066C140.303 105.308 140.343 105.491 140.422 105.615C140.501 105.74 140.637 105.802 140.829 105.802C140.961 105.802 141.095 105.779 141.231 105.734L141.22 106.583C140.994 106.659 140.761 106.696 140.524 106.696C140.128 106.696 139.826 106.555 139.618 106.272C139.411 105.989 139.307 105.589 139.307 105.072V101.268H138.373V100.459H139.307V98.9759H140.303Z" fill="#CC295F"/>
<path d="M144.61 106.696C143.848 106.696 143.263 106.47 142.856 106.017C142.448 105.561 142.241 104.893 142.233 104.013V103.272C142.233 102.359 142.431 101.644 142.827 101.127C143.227 100.606 143.784 100.346 144.497 100.346C145.214 100.346 145.75 100.574 146.105 101.031C146.459 101.487 146.641 102.198 146.648 103.164V103.821H143.229V103.963C143.229 104.619 143.352 105.096 143.597 105.395C143.846 105.693 144.203 105.842 144.667 105.842C144.961 105.842 145.22 105.787 145.442 105.678C145.669 105.564 145.88 105.387 146.076 105.145L146.597 105.779C146.163 106.391 145.501 106.696 144.61 106.696ZM144.497 101.206C144.082 101.206 143.775 101.349 143.575 101.636C143.375 101.919 143.261 102.361 143.235 102.961H145.646V102.825C145.62 102.244 145.514 101.829 145.329 101.58C145.148 101.331 144.871 101.206 144.497 101.206Z" fill="#CC295F"/>
<path d="M150.384 101.398C150.244 101.372 150.093 101.359 149.931 101.359C149.418 101.359 149.059 101.64 148.856 102.202V106.583H147.854V100.459H148.827L148.844 101.081C149.112 100.591 149.491 100.346 149.982 100.346C150.14 100.346 150.273 100.372 150.378 100.425L150.384 101.398Z" fill="#CC295F"/>
</mask>
<g mask="url(#mask0)">
<circle cx="90" cy="90" r="90" fill="#D849C1"/>
</g>
</svg>
