<svg width="580" height="580" viewBox="0 0 580 580" fill="none" xmlns="http://www.w3.org/2000/svg">
<rect width="580" height="580" fill="#CC295F"/>
<path d="M439.723 454.954C439.723 475.364 423.22 491.909 402.861 491.909C382.503 491.909 366 475.364 366 454.954C366 434.545 382.503 418 402.861 418C423.22 418 439.723 434.545 439.723 454.954Z" fill="white"/>
<path d="M132 234.957V181.73H171.584V134.802L231.275 80V181.73H287.509V234.957H231.275V382.984C231.275 406.711 232.531 421.408 235.045 427.078C237.767 432.537 244.365 435.266 254.837 435.266C265.937 435.266 276.828 433.167 287.509 428.967V483.454C272.22 488.913 256.931 491.643 241.642 491.643C223.421 491.643 208.655 487.653 197.345 479.675C186.036 471.486 178.915 461.302 175.982 449.124C173.05 436.946 171.584 415.949 171.584 386.134V234.957H132Z" fill="white"/>
</svg>
